HIERARCHY
ROOT bip01_pelvis
{
	OFFSET -0.141780 111.560104 -53.453648
	CHANNELS 6 Xposition Yposition Zposition Xrotation Yrotation Zrotation
	JOINT bip01_l_thigh
	{
		OFFSET -12.581326 0.000023 0.838757
		CHANNELS 3 Xrotation Yrotation Zrotation
		JOINT bip01_l_calf
		{
			OFFSET -5.405050 -43.060066 12.568863
			CHANNELS 3 Xrotation Yrotation Zrotation
			JOINT bip01_l_foot
			{
				OFFSET -6.378141 -25.639313 -28.000755
				CHANNELS 3 Xrotation Yrotation Zrotation
				JOINT bip01_l_toe0
				{
					OFFSET -1.312191 -43.345943 -5.410645
					CHANNELS 3 Xrotation Yrotation Zrotation
					End Site
					{
						OFFSET 0.668312 -0.011212 0.027710
					}
				}
			}
		}
	}
	JOINT bip01_r_thigh
	{
		OFFSET 12.581315 -0.000053 -0.838764
		CHANNELS 3 Xrotation Yrotation Zrotation
		JOINT bip01_r_calf
		{
			OFFSET 7.025425 -43.060097 11.740181
			CHANNELS 3 Xrotation Yrotation Zrotation
			JOINT bip01_r_foot
			{
				OFFSET 2.604660 -25.639347 -28.599602
				CHANNELS 3 Xrotation Yrotation Zrotation
				JOINT bip01_r_toe0
				{
					OFFSET 0.582125 -43.345810 -5.536972
					CHANNELS 3 Xrotation Yrotation Zrotation
					End Site
					{
						OFFSET 0.658720 0.011207 -0.116180
					}
				}
			}
		}
	}
	JOINT bip01_spine
	{
		OFFSET 1.130847 -10.257637 16.963192
		CHANNELS 3 Xrotation Yrotation Zrotation
		JOINT bip01_spine1
		{
			OFFSET 2.125925 -0.408882 31.891911
			CHANNELS 3 Xrotation Yrotation Zrotation
			JOINT bip01_spine2
			{
				OFFSET 3.104555 -1.436646 46.949230
				CHANNELS 3 Xrotation Yrotation Zrotation
				JOINT bip01_neck
				{
					OFFSET 1.831697 12.621635 29.209831
					CHANNELS 3 Xrotation Yrotation Zrotation
					JOINT bip01_head
					{
						OFFSET 0.933028 14.642593 15.308128
						CHANNELS 3 Xrotation Yrotation Zrotation
						JOINT bip01_ponytail1
						{
							OFFSET 12.881245 30.917107 3.869919
							CHANNELS 3 Xrotation Yrotation Zrotation
							End Site
							{
								OFFSET -0.556711 0.315430 0.195229
							}
						}
						JOINT bip01_ponytail2
						{
							OFFSET -12.308470 31.163292 5.588448
							CHANNELS 3 Xrotation Yrotation Zrotation
							End Site
							{
								OFFSET -0.577699 -0.315430 -0.119598
							}
						}
						JOINT bone01
						{
							OFFSET -0.035753 10.693596 0.910164
							CHANNELS 3 Xrotation Yrotation Zrotation
							End Site
							{
								OFFSET -0.667642 0.000000 0.042305
							}
						}
						JOINT bone03
						{
							OFFSET -2.859410 10.011330 9.974838
							CHANNELS 3 Xrotation Yrotation Zrotation
							End Site
							{
								OFFSET 0.042301 0.000000 0.667641
							}
						}
						JOINT bone05
						{
							OFFSET 4.144515 10.011345 9.531006
							CHANNELS 3 Xrotation Yrotation Zrotation
							End Site
							{
								OFFSET 0.042301 0.000000 0.667641
							}
						}
					}
					JOINT bip01_l_clavicle
					{
						OFFSET -6.817371 -1.737137 -4.124603
						CHANNELS 3 Xrotation Yrotation Zrotation
						JOINT bip01_l_upperarm
						{
							OFFSET -13.915021 0.119522 7.203735
							CHANNELS 3 Xrotation Yrotation Zrotation
							JOINT bip01_l_forearm
							{
								OFFSET 0.900768 -49.360191 -24.691143
								CHANNELS 3 Xrotation Yrotation Zrotation
								JOINT bip01_l_hand
								{
									OFFSET 5.453267 -54.192162 0.261513
									CHANNELS 3 Xrotation Yrotation Zrotation
									End Site
									{
										OFFSET -0.048247 0.019447 -0.666954
									}
								}
							}
						}
					}
					JOINT bip01_r_clavicle
					{
						OFFSET 6.291911 -1.668388 -4.989365
						CHANNELS 3 Xrotation Yrotation Zrotation
						JOINT bip01_r_upperarm
						{
							OFFSET 14.738678 0.269737 5.313599
							CHANNELS 3 Xrotation Yrotation Zrotation
							JOINT bip01_r_forearm
							{
								OFFSET -4.170362 -49.360199 -24.353104
								CHANNELS 3 Xrotation Yrotation Zrotation
								JOINT bip01_r_hand
								{
									OFFSET -5.370342 -54.192158 0.983074
									CHANNELS 3 Xrotation Yrotation Zrotation
									End Site
									{
										OFFSET 0.040714 -0.019448 0.667458
									}
								}
							}
						}
					}
				}
			}
		}
	}
	JOINT bip01_tail
	{
		OFFSET -1.140240 5.694984 -17.420544
		CHANNELS 3 Xrotation Yrotation Zrotation
		JOINT bip01_tail1
		{
			OFFSET -0.799711 -16.655739 -11.995483
			CHANNELS 3 Xrotation Yrotation Zrotation
			JOINT bip01_tail2
			{
				OFFSET -0.560408 -49.655807 -8.404999
				CHANNELS 3 Xrotation Yrotation Zrotation
				End Site
				{
					OFFSET -0.667499 0.000004 0.044495
				}
			}
		}
	}
}
MOTION
Frames: 6
Frame Time: 0.041667
0.030286 112.319618 -52.133770 -2.773658 12.721305 -0.212992 -3.361564 -33.743351 7.858431 -15.431730 2.121490 1.667119 -19.390846 17.232014 -8.514320 41.061820 0.933878 8.699680 6.065719 -6.688935 -0.136559 10.810620 1.576817 -0.630012 21.582448 1.332710 7.119371 34.232864 -12.607529 -10.899413 1.034483 -18.996289 -0.016022 -5.386687 2.095109 3.083867 25.547988 -0.104133 -3.999479 -6.934632 8.053073 -6.792518 -7.774231 32.988694 18.179679 -8.903934 -14.182648 13.982787 -18.469269 14.791978 -18.235502 -3.590795 0.138112 0.311193 0.004080 0.003790 -0.004772 -0.002726 0.000244 0.003158 19.825210 -26.972533 25.144889 -37.680251 32.143919 -3.054700 -50.090155 -7.775895 5.148708 153.794482 -5.731760 3.312291 6.248725 38.675540 0.654887 -45.187377 -41.693797 -26.281769 -9.958657 1.001921 -0.197757 26.250779 -2.632086 0.232481 48.041625 -26.206912 32.264028 14.039879 8.307480 18.339960 -25.997985 22.235462 -39.414436 
0.741592 112.676529 -52.133770 -1.213023 6.654696 -0.741285 -5.492962 -27.140824 7.899724 -10.829713 1.537959 1.111670 -18.322582 16.640072 -10.326595 36.227829 1.140374 9.588255 4.554921 0.442922 -0.643691 9.378069 1.375263 -0.529684 26.053722 1.636219 -0.521001 46.305186 -14.436071 -8.718223 2.217865 -12.496605 0.078228 -7.428762 1.386669 2.891053 23.108461 1.187029 -2.563114 -7.746051 8.180383 -6.663010 -3.568819 33.273878 17.692900 -8.309147 -13.854462 15.236668 -19.401142 13.150248 -18.391201 -3.684908 0.138220 0.316619 0.004079 0.003791 -0.004770 -0.002727 0.000246 0.003160 16.601545 -22.631668 20.039866 -45.435036 22.031798 0.167269 -44.185795 -6.664169 4.922908 145.798775 -6.507405 -2.333285 6.392722 40.506454 1.228125 -36.473029 -45.544316 -22.969378 -14.527613 1.469709 -0.229755 25.699886 -2.451695 1.452900 49.594133 -19.495510 26.081806 12.870851 6.990671 21.815662 -36.697302 13.251165 -23.193953 
1.373865 113.193443 -52.133770 0.758825 -0.572235 -1.521884 -9.825197 -19.308164 7.580544 -6.121659 0.895888 0.593135 -12.767082 14.035591 -10.572615 28.379340 0.968653 8.559215 -2.488348 8.114438 -0.385809 14.718954 2.112910 -0.928874 21.811000 1.123006 -4.047055 57.681555 -13.521113 -7.996619 3.260469 -4.581401 -0.154588 -9.322586 0.462198 2.460157 20.273349 2.402919 -0.772024 -8.605396 8.224945 -6.439256 1.113985 33.411472 16.991822 -7.987431 -13.116043 16.184780 -20.462074 10.741536 -18.114521 -2.329789 -0.171950 0.031011 0.004077 0.003791 -0.004770 -0.002726 0.000248 0.003158 13.572386 -17.237813 14.091713 -52.740026 10.190272 1.338339 -36.103649 -5.189482 4.430131 132.497037 -5.022356 -8.277855 6.588005 42.404458 1.716130 -26.359445 -49.275877 -17.966481 -20.197076 2.051186 -0.217499 25.693457 -2.416291 2.726550 51.385077 -12.134704 17.731659 11.996030 5.626874 24.954588 -43.926504 -0.760546 -6.748823 
1.795382 113.734985 -52.133766 2.718414 -8.194697 -2.218315 -10.995528 -11.339574 9.458721 -5.186427 0.763285 0.496438 -9.331136 12.623799 -11.835211 23.544074 1.099353 9.045585 -16.169979 14.897563 3.092269 26.021733 3.530177 -1.987715 7.852463 -0.510392 -2.422008 64.377251 -11.372295 -8.538203 3.947106 3.563684 -0.636947 -10.568929 -0.270439 2.009144 17.795274 3.412521 0.788168 -9.486569 8.178729 -6.128329 5.121252 33.223874 16.324835 -7.978998 -11.938992 16.785683 -21.693087 7.452804 -17.512305 -1.716727 -0.165320 -0.013086 0.004077 0.003788 -0.004774 -0.002726 0.000247 0.003160 12.345793 -12.710139 10.763883 -63.023221 1.241238 0.453981 -24.773339 -3.268446 3.402012 117.726875 -0.919549 -12.172224 6.818346 44.367147 2.128037 -15.943974 -52.520279 -11.682431 -26.128371 2.654815 -0.143245 25.703482 -2.424263 3.837833 53.374674 -5.341299 8.600824 11.781182 4.495973 27.127814 -46.348089 -15.090017 7.180913 
2.032485 114.276520 -52.133766 4.291630 -15.411294 -3.072268 -11.616046 -3.806318 11.474093 -5.320191 0.782347 0.510135 -5.416352 11.073787 -12.997496 18.711337 1.178856 9.509795 -31.466678 19.859847 9.558483 37.157913 4.692855 -3.280033 -6.964669 -3.473611 0.555711 67.047883 -8.966616 -8.862655 4.021950 10.780281 -1.090057 -10.654223 -0.428703 1.781323 16.456958 4.169949 1.483786 -10.361780 8.035421 -5.742490 7.267451 32.650807 15.957482 -8.319322 -10.292264 17.009078 -23.024021 3.392655 -16.654783 -1.050043 -0.159099 -0.060756 0.004082 0.003784 -0.004772 -0.002725 0.000244 0.003161 12.588378 -9.992230 11.295803 -64.422925 -1.949365 -1.320028 -19.347318 -2.429548 2.781175 96.255404 5.751792 -12.821354 7.072810 46.404783 2.446307 -6.572887 -55.131979 -4.867663 -31.690459 3.210732 -0.017249 25.256810 -2.351377 4.561278 54.919355 0.101347 0.261951 12.546530 3.897970 27.717352 -45.989798 -24.756596 16.300089 
1.979796 114.768822 -52.133762 5.254225 -21.422815 -3.765781 -11.451084 2.599762 12.958541 -6.075020 0.889315 0.588262 -1.413552 9.485728 -13.997549 13.882679 1.204120 9.978263 -44.291724 22.684559 16.286881 39.386511 4.893766 -3.564085 -17.841405 -7.528830 3.550172 68.134094 -6.784716 -8.701448 3.010312 15.987847 -1.049834 -8.926046 0.293979 1.914329 16.546895 4.770030 0.907975 -11.204270 7.792827 -5.287471 6.933302 31.599638 16.026911 -9.021141 -7.952476 16.900051 -24.371585 -1.341382 -15.598229 -0.359041 -0.153486 -0.110015 0.004078 0.003791 -0.004769 -0.002724 0.000248 0.003163 13.383627 -8.401038 13.662037 -63.070138 -3.315718 -1.797723 -15.204332 -1.831216 2.256011 68.602912 12.886001 -8.551115 7.326512 48.512569 2.677262 0.313929 -57.279671 1.283120 -35.860522 3.617803 0.112266 23.776367 -2.045751 4.774434 55.326820 4.184057 -6.251387 14.763024 4.040165 26.221503 -45.715740 -28.882712 19.282517 
